<svg version="1.1" id="Слой_1" xmlns="http://www.w3.org/2000/svg" x="0" y="0" viewBox="0 0 196.2 40.7" style="enable-background:new 0 0 196.2 40.7" xml:space="preserve"><style>.st0{fill:#1d1d1b}</style><path class="st0" d="M28.6 29.9h-1.5V6.2h-3.9v13.5h-.8C10.2 19.8 8.2 9.1 7.8 6.2H4.2v23.6H2.7V4.7h6.6v.7c0 .5.4 12.3 12.3 12.8V4.7h6.9v25.2z"/><path class="st0" d="M29.3 30.6h-3V7h-2.4v13.5h-1.5C12.6 20.5 8.1 13.6 7.2 7H4.9v23.6h-3V4H10v1.5c0 .5.4 11.1 10.9 12V4h8.4v26.6zm-1.5-1.5V5.4h-5.4V19 5.5h5.4v23.6zm-24.4 0V5.5h5.1l.1.7c0 .2.1.5.1.8-.1-.9-.1-1.4-.1-1.5H3.4v23.6zm12.8-11.3c1.7.8 3.7 1.2 6.2 1.2h-.8c-2.1-.1-3.9-.5-5.4-1.2zM34.1 13l1.6-9h1.9l2.5 5.2L42.6 4h1.9l1.6 9h-2.5l-.8-4.9-2.2 4.9h-.9l-2.3-4.9-.7 4.9h-2.6zm20.4-7.8V4H57v9h-2.5v-1.2c-.7 1-1.6 1.5-2.8 1.5-1.4 0-2.5-.5-3.3-1.4-.9-.9-1.3-2.1-1.3-3.4 0-1.4.4-2.5 1.3-3.4.8-.9 1.9-1.4 3.2-1.4 1.3 0 2.3.5 2.9 1.5zm-.4 1.5c-.5-.5-1.1-.7-1.8-.7s-1.3.2-1.8.7c-.5.5-.7 1.1-.7 1.8s.2 1.3.7 1.8c.5.5 1.1.7 1.8.7s1.3-.2 1.8-.7c.5-.5.7-1.1.7-1.8s-.3-1.3-.7-1.8zm12.2-2.4v2.5c-.6-.6-1.3-.8-2.1-.8s-1.4.2-1.9.7c-.4.5-.7 1.1-.7 1.8s.2 1.3.7 1.8c.5.5 1.1.7 1.9.7.8 0 1.4-.3 2-.8v2.5c-.8.4-1.5.6-2.3.6-1.4 0-2.6-.4-3.5-1.3-1-.9-1.4-2.1-1.4-3.5 0-1.5.5-2.8 1.6-3.7.9-.8 2-1.2 3.3-1.2.8.1 1.6.3 2.4.7zm8.8 1.9h-2.5V13h-2.5V6.2h-2.5V4h7.5v2.2zm7.9 3.9 2.3.4c-.1.3-.2.5-.4.7-.2.2-.4.5-.7.9-.3.4-.8.6-1.4.9-.6.2-1.2.3-2 .3-1.4 0-2.6-.4-3.5-1.3-.8-.8-1.3-2-1.3-3.5 0-1.4.5-2.6 1.4-3.5.9-.8 2-1.3 3.4-1.3 1.5 0 2.7.5 3.5 1.5.7.9 1.1 2 1.1 3.5v.2h-6.8c0 .6.1 1.1.4 1.5.4.6 1 .9 1.8.9 1 0 1.7-.4 2.2-1.2zm-4.3-2.8H83c-.1-.6-.4-1-.8-1.3s-.9-.5-1.4-.5c-.5 0-1 .2-1.4.5-.3.3-.6.7-.7 1.3zm11.2 4.6v5.9h-2.5V4h2.5v1.2c.7-1 1.7-1.5 2.9-1.5 1.3 0 2.3.4 3.1 1.2.9.9 1.4 2.1 1.4 3.6s-.5 2.7-1.4 3.6c-.8.8-1.9 1.2-3.1 1.2-1.2 0-2.2-.5-2.9-1.4zM92.1 6c-.7 0-1.2.2-1.6.6-.6.5-.9 1.1-.9 1.9 0 .8.3 1.5.8 2 .5.4 1 .6 1.7.6s1.3-.2 1.7-.6c.5-.5.8-1.1.8-1.9 0-.8-.3-1.4-.8-1.9-.4-.5-1-.7-1.7-.7zM106 4.3v2.5c-.6-.5-1.3-.8-2.1-.8s-1.4.2-1.9.7c-.4.5-.7 1.1-.7 1.8s.2 1.3.7 1.8c.5.5 1.1.7 1.9.7.8 0 1.4-.3 2-.8v2.5c-.8.4-1.5.6-2.3.6-1.4 0-2.6-.4-3.5-1.3-1-.9-1.4-2.1-1.4-3.5 0-1.5.5-2.8 1.6-3.7.9-.8 2-1.2 3.3-1.2.8.1 1.7.3 2.4.7zm1.9-.3h2.5v3.5l3.4-3.5h3.2l-4.1 4 4.3 5H114l-3.1-3.7-.4.4V13H108V4zm17.4 1.2V4h2.5v9h-2.5v-1.2c-.7 1-1.6 1.5-2.8 1.5-1.4 0-2.5-.5-3.3-1.4-.9-.9-1.3-2.1-1.3-3.4 0-1.4.4-2.5 1.3-3.4.8-.9 1.9-1.4 3.2-1.4 1.3 0 2.2.5 2.9 1.5zm-.5 1.5c-.5-.5-1.1-.7-1.8-.7s-1.3.2-1.8.7c-.5.5-.7 1.1-.7 1.8s.2 1.3.7 1.8c.5.5 1.1.7 1.8.7s1.3-.2 1.8-.7c.5-.5.7-1.1.7-1.8s-.2-1.3-.7-1.8zm4.6 6.3 2.7-3.4c-.6-.1-1.1-.3-1.5-.7-.5-.5-.7-1.1-.7-1.9 0-.9.4-1.7 1.1-2.3.6-.5 1.6-.8 2.8-.8h3.6v9h-2.5v-3h-.3l-2.2 3.2h-3zm5.4-5V6h-1.1c-.4 0-.7.1-.9.3-.2.2-.3.5-.3.8 0 .3.1.6.3.8.2.2.5.2.9.2h1.1zM35.1 21.6h8.5v9h-2.5v-6.9h-3.5v6.9h-2.5v-9zm13.5 7.8v5.9H46V21.6h2.5v1.2c.7-1 1.7-1.5 2.9-1.5 1.3 0 2.3.4 3.1 1.2.9.9 1.4 2.1 1.4 3.6s-.5 2.7-1.4 3.6c-.8.8-1.9 1.2-3.1 1.2-1.1 0-2.1-.5-2.8-1.5zm2.2-5.9c-.7 0-1.2.2-1.6.6-.6.5-.9 1.1-.9 1.9 0 .8.3 1.5.8 2 .5.4 1 .6 1.7.6s1.3-.2 1.7-.6c.5-.5.8-1.1.8-1.9 0-.8-.3-1.4-.8-1.9-.4-.5-1-.7-1.7-.7zm11.8-2.2c1.5 0 2.7.4 3.6 1.3 1 .9 1.5 2.1 1.5 3.5s-.5 2.6-1.5 3.5c-.9.8-2.1 1.3-3.6 1.3s-2.7-.4-3.6-1.3c-1-.9-1.5-2.1-1.5-3.5s.5-2.6 1.5-3.5c.9-.9 2.1-1.3 3.6-1.3zm-1.8 6.6c.5.5 1.1.8 1.8.8s1.3-.3 1.8-.8.7-1.1.7-1.8-.2-1.3-.7-1.8c-.5-.5-1.1-.8-1.8-.8s-1.3.3-1.8.8-.7 1.1-.7 1.8.2 1.3.7 1.8zm15.5-.2 2.3.4c-.1.3-.2.5-.4.7-.2.2-.4.5-.7.9-.3.4-.8.6-1.4.9-.6.2-1.2.3-2 .3-1.4 0-2.6-.4-3.5-1.3-.9-.9-1.4-2.1-1.4-3.5s.5-2.6 1.4-3.5c.9-.8 2-1.3 3.4-1.3 1.5 0 2.7.5 3.5 1.5.7.9 1.1 2 1.1 3.5v.2h-6.8c0 .6.1 1.1.4 1.5.4.6 1 .9 1.8.9 1.1 0 1.8-.4 2.3-1.2zM72 24.9h4.3c-.1-.6-.4-1-.8-1.3-.4-.3-.9-.5-1.4-.5-.5 0-1 .2-1.4.5-.3.3-.6.7-.7 1.3zm8.6-3.3h2.5v3.5l3.4-3.5h3.2l-4.1 4 4.3 5h-3.3l-3.1-3.7-.4.4v3.4h-2.5v-9.1zm16.9 2.1H95v6.9h-2.5v-6.9H90v-2.2h7.5v2.2zm6.1-2.4c1.5 0 2.7.4 3.6 1.3 1 .9 1.5 2.1 1.5 3.5s-.5 2.6-1.5 3.5c-.9.8-2.1 1.3-3.6 1.3s-2.7-.4-3.6-1.3c-1-.9-1.5-2.1-1.5-3.5s.5-2.6 1.5-3.5c.8-.9 2-1.3 3.6-1.3zm-1.9 6.6c.5.5 1.1.8 1.8.8s1.3-.3 1.8-.8.7-1.1.7-1.8-.2-1.3-.7-1.8c-.5-.5-1.1-.8-1.8-.8s-1.3.3-1.8.8-.7 1.1-.7 1.8.3 1.3.7 1.8zm9-6.3h4c1 0 1.7.2 2.1.5.6.4.9 1 .9 1.8 0 .4-.1.8-.3 1.1-.2.3-.5.6-.9.8.4.1.8.3 1.2.6.5.4.7 1 .7 1.7 0 .8-.3 1.5-1 2-.5.4-1.2.6-2 .6h-4.6v-9.1zm2.5 3.6h1.2c.3 0 .5-.1.7-.2.2-.1.3-.3.3-.6s-.1-.5-.3-.6c-.1-.1-.4-.1-.8-.1h-1.1v1.5zm0 3.4h1.2c.4 0 .7-.1.9-.2.2-.2.3-.4.3-.7 0-.3-.1-.5-.3-.6-.2-.1-.5-.2-.9-.2h-1.3v1.7z"/></svg>